<?xml version="1.0" standalone="no"?>
<!DOCTYPE svg PUBLIC "-//W3C//DTD SVG 20010904//EN"
 "http://www.w3.org/TR/2001/REC-SVG-20010904/DTD/svg10.dtd">
<svg version="1.0" xmlns="http://www.w3.org/2000/svg"
 width="960.000000pt" height="960.000000pt" viewBox="0 0 960.000000 960.000000"
 preserveAspectRatio="xMidYMid meet">
<metadata>
Created by potrace 1.14, written by Peter Selinger 2001-2017
</metadata>
<g transform="translate(0.000000,960.000000) scale(0.100000,-0.100000)"
fill="#000000" stroke="none">
<path d="M1715 6540 c3 -5 12 -10 20 -10 8 0 17 5 20 10 4 6 -5 10 -20 10 -15
0 -24 -4 -20 -10z"/>
<path d="M1766 6529 c-17 -20 -17 -22 4 -41 18 -17 23 -18 38 -6 29 22 30 30
11 49 -24 24 -30 24 -53 -2z"/>
<path d="M1835 6539 c7 -11 35 -12 35 -1 0 4 -9 8 -20 9 -11 1 -18 -2 -15 -8z"/>
<path d="M1648 6526 c-16 -12 -16 -14 6 -36 l25 -22 22 21 c18 17 20 23 9 36
-15 18 -39 19 -62 1z"/>
<path d="M1878 6526 c-16 -12 -16 -14 6 -36 l25 -22 22 21 c18 17 20 23 9 36
-15 18 -39 19 -62 1z"/>
<path d="M1563 6508 c-25 -12 -29 -23 -12 -33 11 -7 49 22 49 37 0 10 -9 9
-37 -4z"/>
<path d="M1980 6513 c0 -5 9 -16 20 -26 15 -13 26 -15 38 -8 15 8 13 11 -12
21 -16 6 -33 13 -37 16 -5 3 -9 1 -9 -3z"/>
<path d="M1597 6478 c-18 -19 -18 -20 3 -44 l23 -23 19 24 c19 24 19 24 -2 45
-23 23 -20 24 -43 -2z"/>
<path d="M1708 6474 c-15 -15 -14 -18 5 -40 l21 -24 23 22 c21 20 22 23 6 40
-20 22 -34 23 -55 2z"/>
<path d="M1826 6471 c-16 -18 -16 -20 5 -40 l22 -20 19 21 c21 25 22 30 6 46
-17 17 -32 15 -52 -7z"/>
<path d="M1938 6472 c-16 -16 -15 -19 6 -39 l23 -22 22 23 c21 22 21 23 3 39
-23 21 -32 21 -54 -1z"/>
<path d="M1485 6466 c-16 -12 -17 -16 -6 -30 18 -21 34 -20 54 2 13 14 14 21
5 30 -16 16 -30 15 -53 -2z"/>
<path d="M2051 6467 c-8 -11 -5 -19 12 -35 22 -21 23 -21 39 -3 14 17 13 19
-12 35 -23 13 -30 13 -39 3z"/>
<path d="M1428 6426 c-23 -17 -23 -29 1 -50 18 -17 20 -17 40 3 20 20 20 22 4
41 -20 23 -22 24 -45 6z"/>
<path d="M1536 6419 c-19 -19 -19 -19 2 -39 12 -11 23 -20 26 -20 8 0 36 31
36 40 0 10 -29 40 -38 39 -4 0 -16 -9 -26 -20z"/>
<path d="M1655 6420 c-18 -20 -18 -21 2 -42 l21 -21 23 22 23 21 -22 20 c-26
25 -25 25 -47 0z"/>
<path d="M1770 6420 l-21 -21 22 -20 c12 -10 24 -19 26 -19 5 0 45 41 41 43
-1 1 -13 10 -25 20 -21 18 -22 18 -43 -3z"/>
<path d="M1886 6419 c-20 -19 -20 -20 2 -41 l22 -22 22 21 c21 22 21 23 3 43
-22 24 -25 24 -49 -1z"/>
<path d="M1998 6419 c-15 -20 -15 -22 3 -40 16 -16 22 -17 39 -7 24 15 25 31
4 52 -20 21 -26 20 -46 -5z"/>
<path d="M2110 6414 c-11 -13 -10 -19 8 -36 21 -21 22 -21 42 -3 19 17 19 19
4 37 -21 22 -37 23 -54 2z"/>
<path d="M1361 6363 l-23 -24 22 -24 21 -23 24 24 c26 26 25 43 -3 60 -13 9
-22 6 -41 -13z"/>
<path d="M1597 6365 c-17 -24 -17 -25 3 -45 l20 -20 20 20 c11 11 20 22 20 25
0 5 -38 45 -42 45 -2 0 -11 -12 -21 -25z"/>
<path d="M1945 6371 c-33 -38 10 -80 46 -44 19 19 19 19 -4 41 -23 22 -24 22
-42 3z"/>
<path d="M2061 6366 c-20 -22 -21 -25 -6 -40 22 -22 42 -20 55 4 8 16 7 24 -8
40 -18 20 -19 20 -41 -4z"/>
<path d="M1477 6362 c-16 -17 -15 -20 6 -40 l23 -22 22 23 c22 23 22 24 4 40
-24 22 -35 21 -55 -1z"/>
<path d="M1707 6362 c-16 -17 -15 -20 6 -40 l23 -22 22 23 c22 23 22 24 4 40
-24 22 -35 21 -55 -1z"/>
<path d="M1826 6361 c-17 -18 -17 -20 2 -39 20 -20 21 -20 41 -3 25 22 25 25
5 45 -20 21 -27 20 -48 -3z"/>
<path d="M2168 6360 c-16 -18 -16 -20 9 -40 31 -24 37 -25 53 -5 11 13 9 20
-10 40 -27 29 -30 29 -52 5z"/>
<path d="M1420 6308 c-25 -27 -25 -33 2 -52 20 -14 23 -13 45 10 13 14 23 27
23 28 0 2 -11 11 -25 20 -23 15 -25 15 -45 -6z"/>
<path d="M1540 6310 l-23 -20 21 -21 c22 -20 23 -20 47 -1 l24 19 -23 22 -23
21 -23 -20z"/>
<path d="M1657 6312 c-21 -23 -21 -28 2 -51 19 -19 20 -19 40 3 19 20 19 24 5
44 -18 27 -26 27 -47 4z"/>
<path d="M1768 6308 c-17 -21 -17 -23 2 -40 24 -22 22 -22 49 1 l22 19 -22 21
c-28 26 -30 26 -51 -1z"/>
<path d="M1885 6310 c-18 -20 -18 -21 3 -43 l22 -21 21 21 c20 20 20 21 3 42
-23 26 -26 26 -49 1z"/>
<path d="M1997 6308 c-18 -19 -18 -21 -1 -39 21 -24 26 -24 53 0 l22 19 -22
21 c-27 25 -29 25 -52 -1z"/>
<path d="M2115 6310 c-18 -20 -18 -21 6 -46 l25 -25 24 21 23 20 -23 25 c-28
30 -32 31 -55 5z"/>
<path d="M1306 6295 c-20 -30 -20 -39 -2 -54 11 -10 19 -7 35 10 25 27 26 33
5 53 -20 20 -19 20 -38 -9z"/>
<path d="M2231 6296 c-11 -13 -8 -20 16 -40 35 -31 55 -18 31 21 -20 34 -31
38 -47 19z"/>
<path d="M1477 6252 l-26 -27 24 -21 24 -21 25 26 26 27 -24 21 -24 21 -25
-26z"/>
<path d="M1713 6255 l-23 -22 23 -21 23 -22 22 23 22 23 -22 20 -23 20 -22
-21z"/>
<path d="M1356 6243 l-29 -25 24 -22 24 -22 26 27 27 28 -22 20 c-21 20 -21
20 -50 -6z"/>
<path d="M1596 6252 c-15 -18 -15 -20 4 -42 l20 -23 21 22 c20 21 20 23 3 42
-21 24 -27 24 -48 1z"/>
<path d="M1824 6249 c-18 -20 -18 -21 6 -39 24 -18 25 -18 42 0 22 23 22 27 4
46 -20 19 -30 18 -52 -7z"/>
<path d="M1940 6249 c-9 -16 -8 -25 6 -40 17 -19 18 -19 41 3 21 20 22 23 6
40 -21 24 -40 23 -53 -3z"/>
<path d="M2056 6251 c-16 -18 -16 -20 5 -40 29 -27 45 -27 60 0 9 17 7 24 -10
40 -25 24 -34 24 -55 0z"/>
<path d="M2186 6251 c-21 -23 -20 -34 3 -55 15 -14 24 -15 39 -7 31 16 31 34
2 58 -26 22 -28 22 -44 4z"/>
<path d="M1259 6212 c-7 -15 -15 -31 -18 -36 -5 -11 17 1 42 22 21 18 22 28 3
35 -8 3 -19 -5 -27 -21z"/>
<path d="M2290 6222 c0 -5 9 -17 21 -28 21 -19 21 -19 8 9 -12 26 -29 37 -29
19z"/>
<path d="M1537 6198 c-27 -23 -26 -32 5 -56 14 -11 20 -10 37 7 26 26 26 33 3
55 -18 15 -20 15 -45 -6z"/>
<path d="M1656 6201 c-33 -36 12 -77 47 -42 21 20 17 35 -12 51 -14 7 -23 5
-35 -9z"/>
<path d="M1770 6200 c-24 -18 -24 -19 -6 -39 23 -26 27 -26 54 -3 l22 19 -23
21 c-22 20 -23 20 -47 2z"/>
<path d="M1886 6201 c-33 -37 12 -77 48 -42 19 20 19 21 1 41 -22 25 -27 25
-49 1z"/>
<path d="M2001 6201 l-21 -18 24 -28 c21 -24 25 -26 45 -14 27 18 26 40 -3 61
-23 16 -25 16 -45 -1z"/>
<path d="M1409 6184 l-24 -26 24 -19 c23 -19 24 -19 49 6 24 24 24 26 7 45
-23 26 -27 25 -56 -6z"/>
<path d="M2125 6190 c-18 -20 -18 -21 7 -47 l26 -25 22 22 22 22 -23 24 c-27
29 -31 29 -54 4z"/>
<path d="M2250 6185 l-22 -24 24 -24 c22 -22 26 -23 46 -9 28 18 28 25 -1 56
l-24 26 -23 -25z"/>
<path d="M1286 6177 l-25 -24 23 -20 24 -21 26 27 c26 27 26 27 6 44 -25 21
-24 22 -54 -6z"/>
<path d="M1593 6140 c-22 -27 -22 -28 -3 -45 18 -16 21 -17 45 -1 31 20 31 27
3 53 l-23 21 -22 -28z"/>
<path d="M1718 6149 c-23 -13 -23 -32 0 -52 17 -16 20 -15 40 6 22 23 22 24 4
40 -21 20 -21 20 -44 6z"/>
<path d="M1825 6140 c-17 -19 -17 -20 6 -39 23 -19 24 -19 42 -1 9 11 17 22
17 26 0 7 -31 33 -41 34 -3 0 -14 -9 -24 -20z"/>
<path d="M1944 6146 c-15 -12 -17 -19 -8 -32 20 -33 41 -40 64 -19 l20 18 -22
24 c-25 27 -28 28 -54 9z"/>
<path d="M2068 6136 c-16 -23 -16 -24 8 -47 l24 -23 21 21 21 20 -27 27 c-14
14 -27 26 -28 26 -1 0 -10 -11 -19 -24z"/>
<path d="M1343 6123 c-24 -27 -23 -37 6 -53 14 -7 24 -5 40 9 26 22 26 33 3
54 -23 21 -22 21 -49 -10z"/>
<path d="M1467 6132 c-22 -24 -21 -34 4 -50 18 -12 24 -11 45 9 22 21 23 24 7
41 -20 23 -36 23 -56 0z"/>
<path d="M2193 6128 l-22 -22 25 -23 c31 -28 40 -29 55 -2 9 18 7 25 -13 45
l-24 24 -21 -22z"/>
<path d="M1230 6121 c-12 -24 -13 -58 -1 -66 14 -8 65 40 57 53 -4 7 -16 16
-26 22 -15 8 -21 6 -30 -9z"/>
<path d="M2313 6119 l-21 -22 26 -22 c33 -29 43 -24 35 18 -8 45 -16 50 -40
26z"/>
<path d="M1650 6085 l-24 -25 22 -22 22 -22 25 25 c25 25 25 25 7 47 -24 27
-23 27 -52 -3z"/>
<path d="M1771 6089 c-23 -21 -23 -22 -4 -41 21 -21 48 -16 58 10 3 9 -2 24
-13 34 -17 18 -19 18 -41 -3z"/>
<path d="M1889 6092 c-19 -16 -20 -21 -8 -40 19 -31 37 -35 61 -13 l20 20 -25
25 c-25 25 -26 25 -48 8z"/>
<path d="M1526 6079 l-27 -21 22 -24 23 -24 23 22 c27 25 44 17 17 -9 -17 -17
-16 -18 20 -21 21 -2 40 -1 42 1 4 3 -84 97 -91 97 -1 0 -14 -10 -29 -21z"/>
<path d="M2006 6080 c-18 -18 -17 -19 6 -45 l24 -26 27 21 27 21 -27 25 c-31
28 -32 28 -57 4z"/>
<path d="M1400 6065 l-23 -24 24 -20 c24 -19 24 -19 47 1 27 26 28 37 5 54
-24 18 -26 18 -53 -11z"/>
<path d="M2128 6071 c-15 -18 -14 -21 11 -45 l27 -26 22 23 22 23 -25 22 c-31
27 -36 27 -57 3z"/>
<path d="M2257 6064 c-17 -23 -17 -24 3 -44 23 -23 54 -20 64 6 6 15 -1 25
-34 51 -12 9 -19 6 -33 -13z"/>
<path d="M1282 6064 c-28 -19 -28 -40 -1 -55 17 -9 25 -7 45 12 22 21 23 24 7
41 -20 22 -23 22 -51 2z"/>
<path d="M1210 6040 c0 -5 5 -10 11 -10 5 0 7 5 4 10 -3 6 -8 10 -11 10 -2 0
-4 -4 -4 -10z"/>
<path d="M1708 6031 c-25 -25 -23 -28 18 -29 49 -2 59 6 38 29 -21 23 -34 23
-56 0z"/>
<path d="M1827 6032 c-25 -28 -21 -32 28 -32 l46 0 -18 25 c-22 29 -34 31 -56
7z"/>
<path d="M1952 6024 l-23 -24 41 0 c44 0 50 9 23 32 -16 14 -20 13 -41 -8z"/>
<path d="M1467 6022 c-14 -16 -13 -17 19 -19 38 -2 43 6 15 24 -15 10 -22 9
-34 -5z"/>
<path d="M2078 6019 c-17 -18 -16 -18 17 -17 39 1 41 3 21 24 -17 17 -17 17
-38 -7z"/>
<path d="M1346 6015 c-4 -11 2 -15 21 -15 21 0 24 2 13 15 -7 8 -16 15 -20 15
-4 0 -10 -7 -14 -15z"/>
<path d="M2210 6020 c-19 -12 -7 -22 21 -18 19 2 20 5 8 15 -9 7 -20 9 -29 3z"/>
<path d="M1225 6010 c-3 -5 3 -10 15 -10 12 0 18 5 15 10 -3 6 -10 10 -15 10
-5 0 -12 -4 -15 -10z"/>
<path d="M2340 6010 c0 -5 7 -10 16 -10 8 0 12 5 9 10 -3 6 -10 10 -16 10 -5
0 -9 -4 -9 -10z"/>
<path d="M1217 5981 c-6 -2 -21 -12 -32 -22 -19 -17 -43 -18 -301 -19 -217 -1
-295 -5 -340 -16 -149 -40 -268 -132 -338 -264 -68 -130 -66 -79 -66 -1170 0
-861 2 -992 16 -1044 47 -180 170 -315 345 -378 l64 -23 4208 -3 c4665 -2
4270 -8 4407 64 115 60 205 166 252 295 l23 64 2 1000 c1 613 -2 1019 -7 1050
-14 69 -81 202 -124 247 -80 81 -174 139 -271 165 -16 4 -1517 9 -3334 10
l-3305 3 -23 22 c-23 21 -23 21 -593 22 -313 1 -576 -1 -583 -3z m-24 -83 c33
-19 1164 -20 1192 -1 29 20 6586 19 6660 -1 183 -48 323 -187 370 -367 12 -45
15 -220 15 -1031 0 -680 -3 -992 -11 -1030 -39 -187 -198 -347 -387 -387 -39
-8 -1163 -11 -4240 -11 -3521 0 -4195 2 -4239 14 -179 48 -321 189 -368 367
-22 80 -22 1998 0 2078 47 180 193 324 368 367 72 17 609 19 640 2z"/>
<path d="M1224 5859 c-2 -4 -1 -15 2 -24 6 -15 8 -14 25 1 11 9 19 21 19 25 0
9 -40 7 -46 -2z"/>
<path d="M1310 5861 c0 -4 8 -15 18 -25 18 -15 20 -15 40 3 12 10 22 20 22 22
0 2 -18 5 -40 6 -22 2 -40 -1 -40 -6z"/>
<path d="M1448 5848 c19 -19 22 -19 43 -4 13 9 21 17 19 17 -3 1 -22 3 -44 4
l-38 3 20 -20z"/>
<path d="M1570 5859 c0 -8 5 -10 30 -13 6 -1 10 4 10 9 0 6 -9 11 -20 11 -11
1 -20 -3 -20 -7z"/>
<path d="M1634 5847 l-29 -25 25 -21 c31 -26 35 -26 61 0 l21 21 -24 25 -25
25 -29 -25z"/>
<path d="M1712 5854 c9 -9 21 -13 27 -10 19 12 12 22 -16 24 -25 2 -26 1 -11
-14z"/>
<path d="M1761 5846 l-21 -22 28 -27 28 -27 22 23 c26 27 21 50 -12 65 -20 9
-27 7 -45 -12z"/>
<path d="M1844 5851 c15 -14 18 -14 33 1 15 16 14 17 -16 16 -29 -1 -31 -3
-17 -17z"/>
<path d="M1901 5851 c-27 -23 -26 -32 2 -59 l23 -22 22 23 c28 30 28 41 -2 60
-22 15 -26 15 -45 -2z"/>
<path d="M1975 5861 c-10 -18 17 -23 33 -7 15 15 15 16 -5 16 -12 0 -24 -4
-28 -9z"/>
<path d="M2030 5845 l-23 -25 23 -25 24 -26 39 41 c22 22 43 40 48 40 5 0 9 4
9 9 0 5 -16 8 -34 8 -28 -1 -33 -4 -24 -14 6 -8 8 -17 4 -21 -4 -4 -16 3 -26
15 l-17 22 -23 -24z"/>
<path d="M2206 5863 c-3 -3 4 -14 15 -26 l19 -21 20 22 c11 12 20 23 20 24 0
6 -69 6 -74 1z"/>
<path d="M2315 5860 c-2 -3 5 -11 15 -17 15 -10 19 -9 23 7 3 14 0 18 -15 17
-11 -1 -21 -4 -23 -7z"/>
<path d="M1513 5841 c-28 -24 -28 -29 -1 -53 22 -18 22 -18 45 8 22 26 22 28
7 46 -21 22 -23 22 -51 -1z"/>
<path d="M2152 5837 l-22 -23 23 -22 c27 -26 34 -27 53 -8 19 20 18 29 -9 54
l-23 22 -22 -23z"/>
<path d="M1258 5821 l-26 -26 25 -19 c24 -18 25 -18 49 5 30 28 30 33 1 52
-21 14 -25 13 -49 -12z"/>
<path d="M1382 5827 c-22 -23 -22 -24 -4 -40 24 -22 34 -21 56 5 14 16 16 26
9 37 -16 25 -37 24 -61 -2z"/>
<path d="M2277 5830 c-22 -26 -21 -29 5 -51 25 -23 26 -23 44 -5 19 20 18 29
-9 54 -23 22 -23 22 -40 2z"/>
<path d="M1568 5783 l-26 -26 25 -23 c14 -13 27 -24 28 -24 5 0 57 51 54 53
-2 1 -15 12 -29 24 l-26 23 -26 -27z"/>
<path d="M1700 5785 l-24 -26 25 -24 24 -25 28 23 28 22 -23 28 c-13 15 -26
27 -29 27 -3 0 -16 -11 -29 -25z"/>
<path d="M1830 5784 l-25 -24 27 -26 26 -27 27 25 27 25 -23 27 c-27 31 -27
31 -59 0z"/>
<path d="M1961 5783 l-24 -25 28 -25 27 -26 26 26 26 26 -24 26 c-28 30 -29
30 -59 -2z"/>
<path d="M1443 5777 l-22 -22 20 -24 20 -25 26 27 c26 26 26 27 8 47 -22 24
-24 24 -52 -3z"/>
<path d="M2092 5780 l-22 -21 25 -25 25 -25 25 20 26 19 -26 26 c-14 14 -27
26 -29 26 -1 0 -12 -9 -24 -20z"/>
<path d="M1321 5771 c-24 -18 -24 -20 -8 -45 10 -14 19 -26 22 -26 2 0 16 11
31 25 26 24 26 26 9 45 -22 24 -24 24 -54 1z"/>
<path d="M2215 5770 c-18 -20 -18 -21 6 -45 24 -24 24 -24 49 -5 l25 19 -24
25 c-29 31 -33 32 -56 6z"/>
<path d="M1380 5715 c-28 -30 -51 -32 -75 -5 -10 11 -22 20 -28 20 -5 0 -7 -9
-4 -20 5 -19 0 -20 -164 -20 -93 0 -172 -1 -176 -1 -41 -7 -154 -44 -187 -60
-180 -91 -295 -283 -322 -536 -11 -111 -7 -1218 5 -1307 41 -293 193 -485 435
-547 66 -17 127 -18 891 -18 882 1 887 1 1001 53 182 84 296 260 333 516 12
81 12 1243 1 1325 -13 88 -19 113 -45 188 -65 189 -198 318 -373 362 -88 23
-98 23 -247 24 -108 1 -136 4 -127 13 22 22 12 32 -11 10 -30 -29 -51 -28 -80
4 l-24 25 -24 -25 c-30 -32 -40 -32 -69 -1 -13 14 -29 25 -35 25 -7 0 -21 -11
-31 -25 -24 -31 -31 -31 -66 1 -30 29 -24 30 -94 -21 -9 -6 -19 -1 -34 18 -26
33 -34 34 -68 2 -15 -14 -30 -25 -35 -25 -4 0 -19 11 -33 25 -14 14 -28 25
-33 25 -4 0 -18 -11 -31 -25 -13 -14 -27 -25 -32 -25 -5 0 -21 11 -36 25 -15
14 -30 25 -35 25 -4 0 -18 -11 -31 -25 -29 -31 -34 -31 -66 0 l-26 25 -24 -25z
m-122 -801 c0 -123 5 -206 12 -223 23 -56 33 -57 525 -56 336 1 456 4 472 13
45 25 51 55 51 252 0 102 1 191 1 199 1 10 12 12 45 8 58 -7 99 -29 130 -70
53 -69 54 -89 53 -600 l-2 -472 -24 -48 c-28 -56 -68 -92 -119 -107 -56 -15
-412 -13 -413 3 -2 16 -2 16 6 62 3 22 8 65 11 95 2 30 6 66 9 80 2 14 7 57
10 95 4 39 8 77 10 85 3 8 7 44 10 80 3 36 7 74 9 85 2 11 7 54 11 95 4 41 8
79 8 84 2 6 -405 12 -551 7 -21 -1 -23 -4 -18 -43 3 -24 8 -68 11 -98 3 -30 7
-66 9 -80 3 -14 7 -56 10 -95 4 -38 8 -83 10 -100 2 -16 7 -64 11 -105 4 -41
9 -82 10 -90 1 -8 6 -50 10 -92 l6 -78 -223 0 c-249 0 -278 7 -331 69 -56 67
-58 94 -55 613 3 462 3 474 25 513 42 80 102 114 199 115 l62 0 0 -196z"/>
<path d="M3476 5608 c-12 -53 -118 -647 -151 -843 -3 -16 -7 -43 -10 -60 -3
-16 -7 -41 -10 -55 -3 -14 -12 -65 -21 -115 -8 -49 -17 -101 -20 -115 -2 -14
-7 -44 -11 -67 l-6 -43 212 0 c116 0 211 3 211 8 0 4 7 45 15 92 9 47 27 150
41 230 14 80 27 156 30 170 2 14 6 39 9 55 12 66 25 141 29 160 2 11 7 40 11
65 4 25 9 54 11 65 7 35 53 299 59 335 3 19 8 42 10 50 2 8 6 32 9 53 l6 37
-210 0 c-209 0 -210 0 -214 -22z"/>
<path d="M4269 5625 c-1 -3 -2 -8 -3 -12 -1 -5 -6 -28 -10 -53 -5 -25 -10 -54
-12 -65 -3 -11 -7 -36 -10 -55 -2 -19 -7 -46 -10 -60 -2 -14 -6 -36 -9 -50 -3
-14 -7 -36 -10 -50 -2 -14 -7 -47 -11 -75 -3 -27 -8 -53 -10 -56 -2 -3 -5 -19
-8 -35 -3 -16 -14 -83 -26 -149 -12 -66 -23 -129 -25 -140 -1 -11 -6 -38 -9
-60 -4 -22 -9 -51 -12 -65 -2 -14 -7 -38 -9 -55 -3 -16 -8 -41 -10 -55 -9 -42
-13 -66 -19 -101 -3 -19 -8 -45 -11 -59 -3 -14 -8 -46 -11 -72 l-7 -48 211 0
210 0 17 98 c10 53 19 106 21 117 13 66 54 307 54 317 0 5 4 7 9 4 4 -3 7 -16
6 -29 -2 -15 45 -118 119 -263 l123 -239 200 -3 201 -2 7 42 c4 24 9 50 10 59
2 9 6 34 9 55 4 22 13 75 21 119 8 44 17 96 20 115 3 19 8 42 10 50 2 8 6 31
9 50 7 45 110 629 119 675 3 11 8 43 11 70 4 28 9 58 12 68 5 16 -8 17 -208
15 l-213 -3 -12 -70 c-6 -38 -14 -86 -17 -105 -4 -20 -8 -47 -11 -60 -3 -14
-8 -41 -11 -60 -8 -41 -11 -57 -24 -133 -6 -32 -13 -74 -16 -94 -7 -54 -14
-53 -14 1 0 41 -17 80 -122 287 l-123 239 -197 0 c-109 0 -199 -2 -199 -5z"/>
<path d="M5809 5628 c-4 -14 -11 -57 -38 -208 -17 -96 -33 -188 -36 -205 -3
-16 -12 -66 -20 -110 -32 -180 -75 -423 -80 -460 -4 -22 -8 -47 -10 -55 -3 -8
-7 -33 -11 -55 -3 -22 -12 -74 -20 -115 -8 -41 -14 -83 -14 -93 0 -18 16 -19
393 -14 402 5 423 7 544 49 84 30 159 86 226 168 19 22 87 153 87 165 0 4 7
21 14 38 15 31 44 137 52 187 2 14 6 34 9 46 13 60 20 141 19 249 -1 213 -56
307 -214 369 -92 37 -184 44 -547 45 -194 1 -353 1 -354 -1z m662 -365 c21
-21 26 -54 15 -108 -2 -11 -7 -40 -11 -65 -4 -25 -9 -54 -11 -65 -2 -11 -16
-83 -30 -159 -27 -149 -31 -161 -64 -191 -19 -17 -40 -20 -167 -24 l-144 -3 6
43 c4 24 15 89 25 144 11 55 31 168 45 250 15 83 28 157 30 165 2 8 4 21 4 28
1 11 29 13 141 10 128 -3 141 -5 161 -25z"/>
<path d="M7327 5623 c-3 -5 -8 -30 -11 -56 -4 -27 -9 -59 -12 -70 -2 -12 -6
-33 -9 -47 -22 -129 -38 -220 -42 -245 -5 -38 -50 -284 -63 -350 -5 -27 -12
-66 -15 -85 -3 -19 -7 -46 -10 -60 -3 -14 -7 -41 -10 -60 -3 -19 -12 -69 -19
-110 -24 -126 -27 -143 -33 -187 l-5 -43 211 0 c180 0 211 2 212 15 1 8 2 18
3 23 1 4 6 30 11 57 4 28 9 55 11 60 1 6 5 28 8 50 3 22 11 63 16 90 15 78 20
107 26 150 3 22 9 56 14 75 5 19 12 55 15 80 4 25 31 185 61 355 31 171 57
322 59 338 l4 27 -209 0 c-115 0 -211 -3 -213 -7z"/>
<path d="M8311 5588 c-10 -24 -90 -205 -176 -403 -86 -198 -177 -407 -202
-465 -25 -58 -55 -127 -68 -155 -37 -83 -105 -244 -105 -250 0 -3 100 -4 221
-3 l221 3 42 101 41 102 173 1 c94 0 172 -3 173 -7 2 -14 7 -87 10 -144 l2
-58 224 0 225 0 -6 68 c-10 110 -16 183 -21 245 -3 31 -7 84 -10 117 -3 33 -7
88 -10 123 -6 69 -12 145 -20 227 -2 30 -7 91 -10 135 -4 44 -8 100 -10 125
-14 157 -18 207 -20 225 -1 11 -3 28 -4 38 -1 16 -24 17 -326 17 l-326 0 -18
-42z m286 -390 c0 -13 4 -95 8 -183 l7 -160 -95 -1 -95 0 18 45 c10 26 40 100
67 166 28 66 53 128 56 138 9 25 33 21 34 -5z"/>
<path d="M4881 4070 c-91 -33 -164 -99 -208 -189 -23 -46 -28 -69 -27 -131 0
-86 14 -121 74 -179 44 -42 76 -54 163 -57 71 -2 117 11 182 51 163 102 218
312 114 438 -65 79 -186 106 -298 67z m171 -104 c117 -78 83 -262 -62 -336
-51 -26 -135 -22 -178 8 -59 43 -76 108 -50 195 15 48 80 120 127 140 51 22
126 18 163 -7z"/>
<path d="M6535 4071 c-57 -27 -96 -86 -100 -151 -1 -30 29 -76 102 -152 66
-69 74 -82 68 -106 -16 -63 -109 -68 -137 -8 l-11 25 -48 -25 c-27 -13 -49
-31 -49 -38 0 -20 47 -74 79 -90 41 -21 122 -17 172 8 81 41 125 140 94 212
-7 16 -47 65 -89 108 -42 44 -76 85 -76 92 0 21 30 44 57 44 15 0 36 -11 51
-29 l27 -28 42 31 c23 17 42 34 43 37 0 4 -17 23 -37 43 -50 48 -122 59 -188
27z"/>
<path d="M5451 4028 c-32 -152 -59 -330 -57 -380 1 -45 6 -62 26 -83 101 -110
303 -45 344 110 3 11 8 34 11 50 2 17 7 41 10 55 3 14 8 41 11 60 3 19 12 69
20 110 27 145 30 130 -32 130 -30 0 -54 -2 -54 -4 0 -2 -7 -41 -15 -87 -14
-80 -19 -107 -30 -174 -3 -16 -7 -41 -10 -55 -3 -14 -8 -38 -10 -54 -12 -61
-48 -96 -101 -96 -23 0 -39 8 -53 26 -11 15 -19 29 -17 33 2 3 7 28 10 55 4
27 13 83 21 125 8 42 16 92 19 111 9 57 16 94 21 108 3 8 -11 12 -50 12 l-54
0 -10 -52z"/>
<path d="M6005 4068 c-2 -7 -6 -30 -10 -50 l-6 -38 51 0 c44 0 51 -2 46 -17
-3 -10 -7 -34 -10 -53 -3 -19 -8 -45 -10 -56 -2 -12 -7 -39 -10 -60 -4 -22
-14 -79 -22 -129 -9 -49 -18 -102 -21 -117 -4 -28 -4 -28 51 -28 46 0 56 3 57
18 1 17 3 31 15 92 3 19 8 44 9 55 4 26 14 84 20 115 12 58 15 77 21 120 3 25
8 48 11 53 2 4 26 7 54 7 27 0 49 5 49 10 0 6 0 11 0 13 1 1 5 19 9 40 l9 37
-154 0 c-115 0 -156 -3 -159 -12z"/>
<path d="M6979 4068 c0 -7 -2 -20 -4 -28 -3 -18 -9 -53 -24 -140 -6 -36 -13
-76 -16 -90 -11 -59 -14 -77 -19 -110 -3 -19 -12 -68 -19 -107 l-14 -73 53 0
c58 0 52 -9 71 95 4 22 8 42 8 45 1 3 5 26 9 53 8 46 9 47 45 48 54 1 91 8
120 24 94 49 132 193 67 254 -32 30 -67 38 -179 40 -74 2 -97 -1 -98 -11z
m191 -108 c16 -16 18 -24 8 -50 -12 -35 -41 -50 -95 -50 -31 0 -35 2 -30 23 3
12 9 39 12 60 7 35 9 37 46 37 25 0 46 -7 59 -20z"/>
<path d="M7505 4028 c-5 -29 -9 -55 -10 -58 0 -3 -5 -27 -10 -55 -5 -27 -9
-52 -10 -55 -1 -5 -16 -93 -20 -120 -8 -49 -18 -100 -26 -135 -4 -22 -9 -50
-9 -63 l0 -23 150 3 c83 2 150 5 151 8 0 3 4 24 9 48 l7 42 -99 0 -99 0 6 43
c3 23 8 51 10 62 2 11 4 26 4 33 1 9 28 12 100 12 55 0 102 3 104 8 3 4 8 26
12 50 l7 42 -102 0 c-92 0 -101 2 -96 18 3 9 8 34 12 54 l6 37 102 3 c95 3
101 4 102 24 1 12 4 33 8 48 l6 26 -154 0 -153 0 -8 -52z"/>
<path d="M8164 4049 c-9 -18 -26 -49 -37 -68 -11 -20 -33 -61 -50 -91 -16 -30
-33 -59 -37 -65 -4 -5 -31 -53 -60 -105 -29 -52 -66 -119 -82 -148 l-29 -53
57 3 57 3 31 58 31 57 115 -2 115 -3 10 -55 10 -55 59 -3 c52 -3 57 -1 52 15
-7 22 -22 96 -30 143 -4 19 -23 116 -44 215 l-37 180 -57 3 c-55 3 -57 2 -74
-29z m65 -191 c6 -35 14 -75 18 -90 l5 -28 -71 0 c-39 0 -71 2 -71 4 0 3 16
33 35 68 20 35 41 73 47 86 6 12 14 22 18 22 4 0 12 -28 19 -62z"/>
<path d="M8674 4033 c-3 -27 -8 -57 -10 -68 -3 -11 -7 -35 -10 -54 -3 -18 -8
-43 -10 -55 -2 -11 -7 -36 -10 -55 -5 -32 -8 -46 -18 -101 -3 -14 -8 -42 -11
-62 -2 -21 -9 -56 -14 -78 l-9 -41 56 3 c40 2 56 7 57 18 2 8 8 40 14 70 11
54 22 123 24 147 1 23 13 4 72 -112 32 -65 64 -119 71 -122 6 -2 34 -3 62 -1
l51 3 -79 156 -79 156 115 114 c63 62 114 117 114 121 0 5 -26 8 -59 8 l-59 0
-78 -81 c-44 -44 -80 -84 -82 -90 -2 -5 -8 -9 -13 -9 -9 0 -8 11 11 119 6 30
10 56 10 58 0 2 -24 3 -54 3 l-55 0 -7 -47z"/>
</g>
</svg>
